<?xml version="1.0" encoding="UTF-8" ?>
<!DOCTYPE svg PUBLIC "-//W3C//DTD SVG 1.1//EN" "http://www.w3.org/Graphics/SVG/1.1/DTD/svg11.dtd">
<svg width="800pt" height="397pt" viewBox="0 0 800 397" version="1.1" xmlns="http://www.w3.org/2000/svg">
<g id="#ffffffff">
</g>
<g id="#abc3dbff">
<path fill="#abc3db" opacity="1.00" d=" M 420.22 0.00 L 421.77 0.00 C 429.07 0.84 436.67 1.99 442.95 6.08 C 445.67 7.74 448.14 9.91 451.19 10.97 C 454.13 11.76 457.22 11.52 460.24 11.36 C 449.68 12.12 438.88 12.17 428.56 9.49 C 420.36 7.26 412.14 5.02 403.69 3.93 C 409.02 1.98 414.54 0.47 420.22 0.00 Z" />
<path fill="#abc3db" opacity="1.00" d=" M 391.01 11.01 C 392.58 9.49 394.21 7.92 396.28 7.09 C 398.33 6.69 400.42 7.15 402.46 7.48 C 414.01 9.82 425.11 14.42 436.96 15.21 C 443.30 15.56 449.66 15.25 455.99 14.78 C 455.01 15.42 454.05 16.10 453.10 16.77 C 450.25 18.76 447.19 20.43 444.09 21.97 C 440.66 23.41 437.14 24.83 434.35 27.36 C 427.23 33.61 422.21 41.91 418.38 50.49 C 413.17 62.08 409.92 74.45 407.92 86.97 C 405.67 98.84 405.06 110.95 404.83 123.01 C 404.60 131.14 405.55 139.26 405.04 147.39 C 401.62 134.50 400.41 121.06 395.99 108.44 C 394.32 109.39 392.65 110.36 390.99 111.33 C 391.54 114.45 392.34 117.53 393.37 120.54 C 395.91 128.00 397.14 135.82 398.40 143.57 C 399.31 149.29 400.79 154.90 401.78 160.60 C 401.85 163.54 401.80 166.48 401.93 169.42 C 398.75 171.48 396.08 174.35 395.06 178.08 C 390.49 192.21 385.12 206.11 378.35 219.35 C 375.98 224.06 372.70 228.26 368.95 231.96 C 365.70 235.24 361.91 238.20 357.37 239.41 C 352.21 240.80 346.84 241.14 341.54 241.65 C 338.50 241.78 335.17 242.16 332.44 240.55 C 329.52 238.73 328.25 235.23 327.87 231.97 C 327.16 225.65 327.85 219.28 327.53 212.95 C 332.67 213.09 338.17 214.41 342.99 212.01 C 348.62 209.17 352.52 203.82 355.20 198.26 C 359.65 188.48 362.17 177.79 362.26 167.03 C 362.24 159.85 362.81 152.42 360.21 145.57 C 353.62 148.80 348.10 153.80 343.34 159.31 C 338.48 164.98 334.12 171.14 331.11 178.00 C 329.71 181.21 328.06 184.44 325.19 186.58 C 324.16 187.48 323.11 188.36 322.17 189.36 C 322.30 191.46 323.21 193.40 323.90 195.36 C 323.56 196.39 323.22 197.42 322.88 198.46 C 313.03 184.31 311.24 165.55 316.29 149.29 C 317.82 144.46 319.63 139.42 318.64 134.28 C 317.12 125.80 310.75 119.48 307.00 112.00 C 304.83 107.91 304.61 103.16 304.71 98.63 C 304.81 97.09 304.83 95.19 306.27 94.24 C 309.09 92.27 312.72 92.55 315.99 92.67 C 320.28 92.99 324.60 93.26 328.82 94.13 C 332.31 94.74 334.60 97.66 336.84 100.13 C 339.08 102.80 341.68 105.11 344.29 107.42 C 346.44 111.73 346.60 116.65 347.67 121.28 C 349.27 128.02 352.11 134.72 357.28 139.52 C 359.73 135.33 363.58 132.32 366.70 128.69 C 371.75 121.48 372.19 111.78 369.52 103.58 C 365.95 92.51 357.11 83.80 346.93 78.55 C 351.98 71.91 356.45 64.86 360.67 57.68 C 365.11 50.13 369.83 42.74 374.05 35.06 C 378.82 26.48 384.08 18.04 391.01 11.01 M 315.71 106.78 C 314.18 108.14 313.71 110.21 313.09 112.06 C 316.27 111.34 318.71 109.11 321.12 107.05 C 326.37 110.27 328.50 116.42 333.04 120.39 C 333.94 119.47 334.93 118.62 335.64 117.54 C 336.24 115.23 335.62 112.69 334.06 110.89 C 331.66 108.08 328.33 106.12 324.79 105.13 C 321.75 104.32 318.04 104.38 315.71 106.78 M 360.99 144.82 C 365.81 150.99 373.23 154.10 380.37 156.72 C 386.37 158.84 392.87 158.66 399.11 157.99 C 397.17 148.19 387.61 140.26 377.56 140.45 C 371.79 140.38 365.81 141.48 360.99 144.82 Z" />
<path fill="#abc3db" opacity="1.00" d=" M 355.09 52.11 C 361.02 40.12 368.21 28.25 378.95 19.96 C 368.96 36.33 360.48 53.64 349.25 69.23 C 350.71 63.37 352.33 57.51 355.09 52.11 Z" />
<path fill="#abc3db" opacity="1.00" d=" M 505.58 105.37 C 511.10 106.24 516.64 107.00 522.14 108.07 C 527.89 109.24 533.84 108.98 539.54 110.51 C 545.60 112.10 551.89 110.95 558.05 110.83 C 562.55 110.73 567.08 109.26 571.56 110.31 C 574.69 110.98 577.80 111.86 581.02 111.96 C 589.42 112.33 597.58 109.99 605.84 108.83 C 610.81 108.04 615.86 107.76 620.83 106.84 C 620.25 107.91 619.68 108.98 619.11 110.05 C 621.72 113.54 624.42 116.96 627.13 120.37 C 624.77 133.11 621.28 145.77 615.50 157.41 C 611.72 164.89 606.78 171.97 600.04 177.07 C 594.56 181.18 589.59 185.89 584.28 190.20 C 580.30 190.81 576.32 191.40 572.40 192.28 C 562.76 194.49 552.80 193.90 542.99 193.96 C 531.79 193.93 520.88 191.25 510.16 188.28 C 509.38 188.83 508.60 189.37 507.83 189.92 C 508.94 179.18 511.96 168.80 514.12 158.26 C 512.53 158.92 510.94 159.59 509.36 160.25 C 508.37 153.20 508.56 146.09 508.73 139.00 C 508.97 127.69 506.72 116.57 505.58 105.37 Z" />
<path fill="#abc3db" opacity="1.00" d=" M 555.50 234.53 C 563.78 221.11 572.06 207.50 582.91 195.95 C 580.52 205.89 575.79 215.01 570.93 223.93 C 567.84 229.39 564.58 234.78 560.66 239.69 C 559.38 241.36 557.99 242.97 557.07 244.88 C 555.78 248.12 556.40 251.82 555.01 255.03 C 552.48 258.25 548.93 260.46 545.64 262.82 C 542.17 263.54 538.76 264.49 535.28 265.12 C 530.93 265.93 526.53 265.08 522.19 264.70 C 513.78 263.90 505.32 264.06 496.92 263.21 C 489.97 262.55 483.97 258.76 477.80 255.85 C 477.54 257.39 477.30 258.92 477.08 260.47 C 475.42 257.32 474.04 254.03 472.35 250.90 C 475.26 249.41 477.69 247.20 480.08 245.00 C 489.37 241.35 498.96 247.19 508.36 244.92 C 507.30 243.57 506.38 241.88 504.59 241.41 C 499.85 239.81 494.74 239.89 489.80 240.00 C 493.15 239.05 496.41 237.77 499.80 236.93 C 505.73 235.43 511.87 235.03 517.96 234.96 C 524.66 234.92 531.43 235.38 537.93 237.12 C 541.61 238.11 545.25 239.26 548.94 240.25 C 546.28 246.40 544.29 252.83 543.14 259.43 C 544.32 259.64 545.51 259.89 546.72 259.98 C 549.84 256.93 550.36 252.32 551.20 248.26 C 551.95 243.51 552.86 238.65 555.50 234.53 Z" />
</g>
<g id="#85ceedff">
<path fill="#85ceed" opacity="1.00" d=" M 519.70 0.00 L 532.68 0.00 C 518.87 1.79 505.16 4.16 491.43 6.43 C 483.98 7.99 476.45 9.05 468.90 9.93 C 478.50 5.70 488.88 3.77 499.19 2.17 C 506.01 1.32 512.89 0.98 519.70 0.00 Z" />
<path fill="#85ceed" opacity="1.00" d=" M 520.77 4.67 C 529.87 3.78 539.07 2.60 548.20 3.79 C 561.73 5.57 575.35 7.45 588.39 11.62 C 595.86 13.95 602.59 17.98 609.53 21.49 C 620.39 27.02 630.06 34.78 638.03 43.98 C 643.68 50.49 648.32 57.79 653.01 65.00 C 656.75 70.76 660.15 76.76 663.03 83.00 C 652.26 95.57 636.53 102.67 620.83 106.84 C 615.86 107.76 610.81 108.04 605.84 108.83 C 597.58 109.99 589.42 112.33 581.02 111.96 C 577.80 111.86 574.69 110.98 571.56 110.31 C 567.08 109.26 562.55 110.73 558.05 110.83 C 551.89 110.95 545.60 112.10 539.54 110.51 C 533.84 108.98 527.89 109.24 522.14 108.07 C 516.64 107.00 511.10 106.24 505.58 105.37 C 504.89 102.13 503.57 99.08 502.64 95.90 C 502.56 91.62 502.17 87.32 500.71 83.26 C 495.30 64.44 487.92 45.28 473.86 31.15 C 468.05 24.85 459.62 22.16 453.10 16.77 C 454.05 16.10 455.01 15.42 455.99 14.78 C 466.36 13.22 476.80 12.12 487.08 10.02 C 498.30 8.16 509.44 5.78 520.77 4.67 Z" />
<path fill="#85ceed" opacity="1.00" d=" M 598.05 9.97 C 603.53 11.31 609.04 12.62 614.31 14.69 C 628.27 20.01 641.93 26.82 653.20 36.78 C 660.31 43.09 666.52 51.07 668.38 60.60 C 669.60 66.39 667.89 72.20 666.89 77.88 C 664.65 73.54 662.54 69.14 660.03 64.95 C 653.42 53.90 645.15 43.98 636.61 34.39 C 634.39 31.93 631.96 29.65 629.24 27.74 C 619.38 20.92 608.83 15.18 598.05 9.97 Z" />
</g>
<g id="#0d0c0fff">
<path fill="#0d0c0f" opacity="1.00" d=" M 532.68 0.00 L 554.30 0.00 C 569.08 2.33 583.86 5.15 598.05 9.97 C 608.83 15.18 619.38 20.92 629.24 27.74 C 631.96 29.65 634.39 31.93 636.61 34.39 C 645.15 43.98 653.42 53.90 660.03 64.95 C 662.54 69.14 664.65 73.54 666.89 77.88 C 669.16 82.21 671.32 86.67 672.49 91.45 C 674.05 97.76 674.53 104.26 675.11 110.71 C 675.47 120.14 674.66 129.57 674.77 139.00 C 674.83 159.18 675.71 179.76 670.43 199.44 C 669.20 204.48 666.54 209.00 664.96 213.91 C 663.07 219.90 664.12 226.23 664.90 232.31 C 665.13 238.46 664.90 244.81 661.99 250.39 C 661.21 249.08 660.44 247.78 659.75 246.44 C 657.61 233.65 658.33 220.17 663.04 208.01 C 666.76 198.43 668.15 188.15 669.15 177.99 C 670.39 160.68 669.50 143.33 669.62 126.00 C 669.56 119.76 669.83 113.51 669.57 107.27 C 669.18 98.82 666.54 90.64 663.03 83.00 C 660.15 76.76 656.75 70.76 653.01 65.00 C 648.32 57.79 643.68 50.49 638.03 43.98 C 630.06 34.78 620.39 27.02 609.53 21.49 C 602.59 17.98 595.86 13.95 588.39 11.62 C 575.35 7.45 561.73 5.57 548.20 3.79 C 539.07 2.60 529.87 3.78 520.77 4.67 C 509.44 5.78 498.30 8.16 487.08 10.02 C 476.80 12.12 466.36 13.22 455.99 14.78 C 449.66 15.25 443.30 15.56 436.96 15.21 C 425.11 14.42 414.01 9.82 402.46 7.48 C 400.42 7.15 398.33 6.69 396.28 7.09 C 394.21 7.92 392.58 9.49 391.01 11.01 C 384.08 18.04 378.82 26.48 374.05 35.06 C 369.83 42.74 365.11 50.13 360.67 57.68 C 356.45 64.86 351.98 71.91 346.93 78.55 C 346.36 79.27 345.79 79.99 345.20 80.69 C 342.29 84.07 338.88 87.01 335.10 89.36 C 337.75 85.02 340.98 81.07 343.99 76.96 C 345.82 74.44 347.59 71.87 349.25 69.23 C 360.48 53.64 368.96 36.33 378.95 19.96 C 382.68 16.03 386.03 11.66 390.41 8.40 C 394.24 5.52 399.12 4.88 403.69 3.93 C 412.14 5.02 420.36 7.26 428.56 9.49 C 438.88 12.17 449.68 12.12 460.24 11.36 C 463.15 11.10 466.03 10.53 468.90 9.93 C 476.45 9.05 483.98 7.99 491.43 6.43 C 505.16 4.16 518.87 1.79 532.68 0.00 Z" />
<path fill="#0d0c0f" opacity="1.00" d=" M 301.99 94.73 C 307.07 91.45 312.82 88.84 319.00 88.98 C 328.56 88.60 337.64 92.94 344.68 99.16 C 345.92 100.78 347.04 102.49 348.17 104.20 C 346.88 105.28 345.59 106.36 344.29 107.42 C 341.68 105.11 339.08 102.80 336.84 100.13 C 334.60 97.66 332.31 94.74 328.82 94.13 C 324.60 93.26 320.28 92.99 315.99 92.67 C 312.72 92.55 309.09 92.27 306.27 94.24 C 304.83 95.19 304.81 97.09 304.71 98.63 C 304.61 103.16 304.83 107.91 307.00 112.00 C 310.75 119.48 317.12 125.80 318.64 134.28 C 319.63 139.42 317.82 144.46 316.29 149.29 C 311.24 165.55 313.03 184.31 322.88 198.46 C 325.62 202.81 327.13 207.84 327.53 212.95 C 327.85 219.28 327.16 225.65 327.87 231.97 C 328.25 235.23 329.52 238.73 332.44 240.55 C 335.17 242.16 338.50 241.78 341.54 241.65 C 346.84 241.14 352.21 240.80 357.37 239.41 C 361.91 238.20 365.70 235.24 368.95 231.96 C 372.70 228.26 375.98 224.06 378.35 219.35 C 385.12 206.11 390.49 192.21 395.06 178.08 C 396.08 174.35 398.75 171.48 401.93 169.42 C 402.03 171.53 402.09 173.64 401.99 175.74 C 397.38 182.37 395.64 190.34 392.61 197.70 C 388.40 208.44 383.52 219.16 376.00 228.03 C 369.69 235.48 361.21 241.39 351.58 243.52 C 346.39 244.68 341.06 245.14 335.76 245.36 C 332.35 244.50 328.81 243.89 325.66 242.27 C 322.65 240.76 320.65 237.42 320.94 234.04 C 321.29 229.62 323.12 225.45 323.29 221.00 C 323.47 215.27 322.10 209.54 319.64 204.39 C 316.23 197.17 311.46 190.55 309.20 182.83 C 307.51 177.16 308.16 171.13 309.49 165.46 C 311.52 156.66 313.04 147.64 312.53 138.58 C 312.17 131.94 310.10 125.31 306.04 119.99 C 302.94 115.78 298.95 111.55 298.84 106.00 C 299.32 102.10 301.64 98.68 301.99 94.73 Z" />
<path fill="#0d0c0f" opacity="1.00" d=" M 436.91 96.31 C 437.96 95.93 439.02 95.54 440.08 95.16 C 450.77 104.64 458.75 116.66 468.58 126.98 C 475.76 134.70 483.65 142.16 493.35 146.59 C 496.61 148.19 500.16 149.56 502.66 152.30 C 503.84 153.60 503.89 155.46 504.35 157.08 C 500.97 156.94 497.57 156.23 494.78 154.22 C 485.87 148.29 476.84 142.45 468.77 135.39 C 462.71 130.20 458.26 123.53 453.24 117.41 C 447.77 110.42 439.14 105.41 436.91 96.31 Z" />
<path fill="#0d0c0f" opacity="1.00" d=" M 315.71 106.78 C 318.04 104.38 321.75 104.32 324.79 105.13 C 328.33 106.12 331.66 108.08 334.06 110.89 C 335.62 112.69 336.24 115.23 335.64 117.54 C 334.93 118.62 333.94 119.47 333.04 120.39 C 328.50 116.42 326.37 110.27 321.12 107.05 C 318.71 109.11 316.27 111.34 313.09 112.06 C 313.71 110.21 314.18 108.14 315.71 106.78 Z" />
<path fill="#0d0c0f" opacity="1.00" d=" M 390.99 111.33 C 392.65 110.36 394.32 109.39 395.99 108.44 C 400.41 121.06 401.62 134.50 405.04 147.39 C 405.51 150.11 406.11 152.80 406.81 155.47 C 407.69 158.76 408.57 162.06 409.79 165.25 C 411.53 169.84 414.48 173.80 417.03 177.95 C 421.01 184.38 424.70 190.99 428.21 197.70 C 431.46 203.88 433.63 210.62 437.55 216.44 C 440.99 221.66 444.25 228.01 442.18 234.39 C 435.24 229.76 433.27 221.25 429.87 214.16 C 424.37 202.37 418.83 190.47 411.11 179.94 C 407.26 173.88 404.04 167.42 401.78 160.60 C 400.79 154.90 399.31 149.29 398.40 143.57 C 397.14 135.82 395.91 128.00 393.37 120.54 C 392.34 117.53 391.54 114.45 390.99 111.33 Z" />
<path fill="#0d0c0f" opacity="1.00" d=" M 629.00 115.93 C 630.40 114.65 632.16 113.87 633.81 112.96 C 631.03 125.81 628.14 138.76 622.84 150.85 C 618.38 161.19 611.86 170.99 602.54 177.52 C 599.03 179.97 595.77 182.74 592.73 185.74 C 589.17 188.85 585.90 192.29 582.91 195.95 C 572.06 207.50 563.78 221.11 555.50 234.53 C 552.86 238.65 551.95 243.51 551.20 248.26 C 550.36 252.32 549.84 256.93 546.72 259.98 C 545.51 259.89 544.32 259.64 543.14 259.43 C 544.29 252.83 546.28 246.40 548.94 240.25 C 552.67 232.22 557.27 224.61 562.53 217.49 C 566.79 211.75 570.42 205.55 575.25 200.25 C 578.28 196.92 581.23 193.51 584.28 190.20 C 589.59 185.89 594.56 181.18 600.04 177.07 C 606.78 171.97 611.72 164.89 615.50 157.41 C 621.28 145.77 624.77 133.11 627.13 120.37 C 627.61 118.85 628.04 117.25 629.00 115.93 Z" />
<path fill="#0d0c0f" opacity="1.00" d=" M 476.80 154.73 C 477.72 153.07 479.67 152.35 481.12 151.23 C 482.14 158.08 481.48 165.02 481.67 171.91 C 481.68 181.95 481.73 191.99 480.99 202.00 C 480.34 209.95 482.32 217.94 480.91 225.85 C 480.53 227.63 480.26 229.57 479.09 231.03 C 478.10 231.54 477.10 232.00 476.09 232.43 C 474.88 220.63 476.26 208.79 476.33 196.98 C 476.38 185.69 477.23 174.38 476.18 163.11 C 476.16 160.31 475.99 157.44 476.80 154.73 Z" />
<path fill="#0d0c0f" opacity="1.00" d=" M 509.36 160.25 C 510.94 159.59 512.53 158.92 514.12 158.26 C 511.96 168.80 508.94 179.18 507.83 189.92 C 506.75 198.84 506.45 207.96 508.18 216.83 C 508.75 220.94 509.97 225.32 508.39 229.36 C 507.81 231.19 505.73 231.54 504.23 232.28 C 503.25 229.28 502.69 226.15 502.72 222.99 C 502.69 217.90 502.30 212.82 502.09 207.73 C 502.32 203.79 502.31 199.84 502.10 195.90 C 498.06 201.51 494.70 207.80 489.01 212.00 C 490.79 207.58 492.77 203.22 495.13 199.08 C 496.73 196.17 499.28 193.98 501.41 191.49 C 502.89 189.86 502.97 187.54 503.44 185.50 C 504.61 176.90 507.89 168.78 509.36 160.25 Z" />
<path fill="#0d0c0f" opacity="1.00" d=" M 616.55 167.49 C 618.58 163.07 622.21 159.45 626.79 157.71 C 624.16 161.88 620.80 165.79 619.79 170.75 C 617.41 181.27 619.83 192.09 622.76 202.23 C 624.59 209.22 627.56 215.86 629.15 222.91 C 629.64 225.56 630.20 228.47 629.07 231.04 C 628.18 231.87 627.12 232.48 626.12 233.14 C 624.57 230.05 623.41 226.78 622.58 223.42 C 619.36 211.95 617.51 200.15 614.34 188.66 C 612.27 181.66 613.62 174.04 616.55 167.49 Z" />
<path fill="#0d0c0f" opacity="1.00" d=" M 425.82 223.81 C 427.90 222.59 430.06 221.52 432.28 220.57 C 432.15 224.17 431.14 227.65 429.57 230.88 C 428.05 231.23 426.55 231.58 425.04 231.92 C 425.31 229.22 425.67 226.52 425.82 223.81 Z" />
<path fill="#0d0c0f" opacity="1.00" d=" M 611.95 239.13 C 612.30 235.85 615.18 233.89 617.46 231.90 C 617.19 235.63 617.31 239.57 618.96 243.01 C 620.70 246.57 624.24 248.80 627.82 250.20 C 635.74 253.32 644.37 253.79 652.80 253.95 C 656.36 254.07 659.93 254.44 663.41 255.29 C 658.79 258.10 653.20 257.43 648.04 257.72 C 637.58 258.12 626.43 256.56 617.80 250.21 C 614.32 247.70 611.10 243.69 611.95 239.13 Z" />
<path fill="#0d0c0f" opacity="1.00" d=" M 427.38 239.32 C 428.95 238.08 430.53 236.85 432.10 235.60 C 432.04 237.40 431.65 239.50 432.99 240.96 C 435.09 243.41 438.05 244.96 441.08 245.95 C 447.05 247.84 453.36 248.15 459.45 249.51 C 460.95 249.79 462.13 250.81 463.35 251.66 C 458.87 252.45 454.30 252.58 449.77 252.23 C 443.27 251.35 436.33 250.16 431.05 245.99 C 428.88 244.41 428.13 241.75 427.38 239.32 Z" />
<path fill="#0d0c0f" opacity="1.00" d=" M 488.01 240.22 C 488.45 240.16 489.35 240.05 489.80 240.00 C 494.74 239.89 499.85 239.81 504.59 241.41 C 506.38 241.88 507.30 243.57 508.36 244.92 C 498.96 247.19 489.37 241.35 480.08 245.00 C 478.66 245.28 477.23 245.51 475.81 245.73 C 479.23 242.69 483.59 241.14 488.01 240.22 Z" />
<path fill="#0d0c0f" opacity="1.00" d=" M 371.93 294.00 C 372.04 290.36 371.29 286.47 373.01 283.08 C 373.56 284.65 373.99 286.29 373.95 287.99 C 373.95 301.98 373.69 315.98 374.06 329.97 C 382.19 323.88 389.72 317.02 397.64 310.66 C 401.38 307.85 404.45 303.80 409.18 302.62 C 408.01 304.27 406.70 305.84 405.12 307.11 C 399.44 311.74 393.73 316.35 388.20 321.18 C 395.84 331.44 404.35 341.05 411.85 351.42 C 409.75 351.09 407.89 350.04 406.68 348.28 C 400.05 339.84 393.43 331.40 386.70 323.04 C 382.25 326.04 377.82 329.28 374.27 333.32 C 372.90 339.43 375.17 345.92 373.02 351.89 C 371.49 349.17 371.97 345.97 371.91 343.00 C 371.98 326.67 371.96 310.33 371.93 294.00 Z" />
<path fill="#0d0c0f" opacity="1.00" d=" M 304.81 306.79 C 312.63 299.17 326.88 299.61 334.02 307.95 C 338.71 313.28 340.09 320.71 339.88 327.63 C 328.92 327.46 317.95 327.61 306.99 327.48 C 304.34 327.46 301.69 327.62 299.06 327.89 C 299.36 333.06 300.29 338.41 303.18 342.82 C 305.81 346.83 310.26 349.54 315.04 350.01 C 322.14 350.99 330.50 348.89 334.35 342.36 C 336.15 339.68 336.02 335.76 338.91 333.88 C 338.87 337.67 337.86 341.52 335.49 344.54 C 331.08 350.54 323.14 352.92 315.95 352.32 C 309.85 351.98 303.86 348.66 300.79 343.30 C 297.08 336.97 296.83 329.33 297.40 322.20 C 297.86 316.38 300.60 310.82 304.81 306.79 M 308.03 306.99 C 302.24 311.08 299.77 318.28 299.03 325.06 C 305.33 325.67 311.67 325.28 318.00 325.36 C 324.60 325.28 331.21 325.67 337.80 325.06 C 337.57 319.07 335.86 312.83 331.45 308.54 C 325.36 302.47 314.89 301.87 308.03 306.99 Z" />
<path fill="#0d0c0f" opacity="1.00" d=" M 419.33 306.30 C 424.52 301.63 432.21 300.30 438.85 302.20 C 444.52 303.68 449.20 308.07 451.46 313.43 C 453.28 317.74 453.80 322.45 454.13 327.09 C 440.50 328.41 426.72 326.73 413.07 327.90 C 413.38 333.97 414.57 340.52 418.91 345.10 C 422.70 349.23 428.61 350.58 434.03 350.17 C 440.34 349.93 446.94 346.50 449.32 340.39 C 450.42 338.18 450.57 335.23 452.93 333.90 C 453.03 340.59 449.05 347.07 443.00 349.93 C 434.67 354.00 423.29 353.37 416.85 346.15 C 411.64 340.11 410.79 331.64 411.23 323.99 C 411.54 317.35 414.29 310.73 419.33 306.30 M 422.03 306.99 C 416.28 311.10 413.70 318.26 413.04 325.06 C 419.34 325.67 425.68 325.29 432.00 325.36 C 438.60 325.28 445.21 325.66 451.80 325.07 C 451.60 318.85 449.67 312.34 444.93 308.06 C 438.78 302.42 428.69 302.02 422.03 306.99 Z" />
<path fill="#0d0c0f" opacity="1.00" d=" M 515.13 302.67 C 516.80 303.41 517.84 304.85 518.43 306.54 C 521.79 314.81 525.31 323.02 528.75 331.26 C 531.14 336.74 533.13 342.40 536.00 347.66 C 537.41 344.75 538.64 341.76 539.76 338.73 C 543.61 328.27 547.71 317.91 551.47 307.42 C 552.17 305.54 552.83 303.31 555.02 302.73 C 554.55 305.18 553.82 307.59 552.89 309.91 C 547.04 324.80 541.36 339.75 535.67 354.69 C 534.17 358.38 533.25 362.50 530.47 365.49 C 527.65 368.25 523.38 367.92 519.76 367.96 C 520.60 365.53 523.63 366.21 525.61 365.53 C 528.56 365.34 530.11 362.56 531.20 360.18 C 532.49 357.20 533.98 354.22 534.49 350.99 C 534.31 349.29 533.55 347.72 532.93 346.15 C 527.56 334.05 522.68 321.75 517.36 309.63 C 516.37 307.39 515.63 305.06 515.13 302.67 Z" />
</g>
<g id="#4889c1ff">
<path fill="#4889c1" opacity="1.00" d=" M 444.09 21.97 C 447.19 20.43 450.25 18.76 453.10 16.77 C 459.62 22.16 468.05 24.85 473.86 31.15 C 487.92 45.28 495.30 64.44 500.71 83.26 C 502.17 87.32 502.56 91.62 502.64 95.90 C 498.55 97.63 494.43 99.27 490.40 101.14 C 478.73 95.83 466.40 91.64 455.87 84.14 C 444.57 76.55 433.60 66.33 430.41 52.58 C 428.70 44.54 431.67 36.06 436.92 29.93 C 439.25 27.22 441.63 24.56 444.09 21.97 Z" />
</g>
<g id="#6a8abbff">
<path fill="#6a8abb" opacity="1.00" d=" M 434.35 27.36 C 437.14 24.83 440.66 23.41 444.09 21.97 C 441.63 24.56 439.25 27.22 436.92 29.93 C 431.67 36.06 428.70 44.54 430.41 52.58 C 433.60 66.33 444.57 76.55 455.87 84.14 C 466.40 91.64 478.73 95.83 490.40 101.14 C 486.37 102.94 483.18 106.01 480.04 109.03 C 477.88 111.18 474.60 112.30 473.30 115.22 C 471.52 119.05 469.95 122.98 468.58 126.98 C 458.75 116.66 450.77 104.64 440.08 95.16 C 439.02 95.54 437.96 95.93 436.91 96.31 C 439.14 105.41 447.77 110.42 453.24 117.41 C 448.72 122.88 445.00 128.97 440.22 134.22 C 431.03 143.85 419.94 152.23 406.81 155.47 C 406.11 152.80 405.51 150.11 405.04 147.39 C 405.55 139.26 404.60 131.14 404.83 123.01 C 405.06 110.95 405.67 98.84 407.92 86.97 C 409.92 74.45 413.17 62.08 418.38 50.49 C 422.21 41.91 427.23 33.61 434.35 27.36 Z" />
</g>
<g id="#c7ccdbff">
<path fill="#c7ccdb" opacity="1.00" d=" M 321.24 75.15 C 328.82 73.15 336.61 75.01 343.99 76.96 C 340.98 81.07 337.75 85.02 335.10 89.36 C 338.88 87.01 342.29 84.07 345.20 80.69 C 345.38 86.85 344.85 93.00 344.68 99.16 C 337.64 92.94 328.56 88.60 319.00 88.98 C 312.82 88.84 307.07 91.45 301.99 94.73 C 302.93 84.74 311.77 77.09 321.24 75.15 Z" />
<path fill="#c7ccdb" opacity="1.00" d=" M 620.83 106.84 C 636.53 102.67 652.26 95.57 663.03 83.00 C 666.54 90.64 669.18 98.82 669.57 107.27 C 669.83 113.51 669.56 119.76 669.62 126.00 C 669.50 143.33 670.39 160.68 669.15 177.99 C 668.15 188.15 666.76 198.43 663.04 208.01 C 658.33 220.17 657.61 233.65 659.75 246.44 C 656.75 248.22 654.60 251.02 652.80 253.95 C 644.37 253.79 635.74 253.32 627.82 250.20 C 624.24 248.80 620.70 246.57 618.96 243.01 C 617.31 239.57 617.19 235.63 617.46 231.90 C 618.59 228.47 617.24 224.99 616.45 221.65 C 612.69 206.82 611.37 191.51 610.82 176.25 C 605.07 179.93 599.15 183.37 592.73 185.74 C 595.77 182.74 599.03 179.97 602.54 177.52 C 611.86 170.99 618.38 161.19 622.84 150.85 C 628.14 138.76 631.03 125.81 633.81 112.96 C 632.16 113.87 630.40 114.65 629.00 115.93 C 628.04 117.25 627.61 118.85 627.13 120.37 C 624.42 116.96 621.72 113.54 619.11 110.05 C 619.68 108.98 620.25 107.91 620.83 106.84 M 616.55 167.49 C 613.62 174.04 612.27 181.66 614.34 188.66 C 617.51 200.15 619.36 211.95 622.58 223.42 C 623.41 226.78 624.57 230.05 626.12 233.14 C 627.12 232.48 628.18 231.87 629.07 231.04 C 630.20 228.47 629.64 225.56 629.15 222.91 C 627.56 215.86 624.59 209.22 622.76 202.23 C 619.83 192.09 617.41 181.27 619.79 170.75 C 620.80 165.79 624.16 161.88 626.79 157.71 C 622.21 159.45 618.58 163.07 616.55 167.49 Z" />
<path fill="#c7ccdb" opacity="1.00" d=" M 675.11 110.71 C 676.27 120.78 677.77 130.83 678.01 140.98 C 678.84 167.91 676.70 195.17 669.18 221.14 C 668.11 224.99 666.44 228.63 664.90 232.31 C 664.12 226.23 663.07 219.90 664.96 213.91 C 666.54 209.00 669.20 204.48 670.43 199.44 C 675.71 179.76 674.83 159.18 674.77 139.00 C 674.66 129.57 675.47 120.14 675.11 110.71 Z" />
</g>
<g id="#849cc4ff">
<path fill="#849cc4" opacity="1.00" d=" M 345.20 80.69 C 345.79 79.99 346.36 79.27 346.93 78.55 C 357.11 83.80 365.95 92.51 369.52 103.58 C 372.19 111.78 371.75 121.48 366.70 128.69 C 363.58 132.32 359.73 135.33 357.28 139.52 C 352.11 134.72 349.27 128.02 347.67 121.28 C 346.60 116.65 346.44 111.73 344.29 107.42 C 345.59 106.36 346.88 105.28 348.17 104.20 C 347.04 102.49 345.92 100.78 344.68 99.16 C 344.85 93.00 345.38 86.85 345.20 80.69 Z" />
<path fill="#849cc4" opacity="1.00" d=" M 440.22 134.22 C 445.00 128.97 448.72 122.88 453.24 117.41 C 458.26 123.53 462.71 130.20 468.77 135.39 C 467.76 137.43 466.73 139.59 467.05 141.94 C 467.66 149.70 469.91 157.98 476.18 163.11 C 477.23 174.38 476.38 185.69 476.33 196.98 C 476.26 208.79 474.88 220.63 476.09 232.43 C 477.10 232.00 478.10 231.54 479.09 231.03 C 480.26 229.57 480.53 227.63 480.91 225.85 C 482.32 217.94 480.34 209.95 480.99 202.00 C 481.73 191.99 481.68 181.95 481.67 171.91 C 488.63 176.90 495.67 181.84 503.44 185.50 C 502.97 187.54 502.89 189.86 501.41 191.49 C 499.28 193.98 496.73 196.17 495.13 199.08 C 492.77 203.22 490.79 207.58 489.01 212.00 C 494.70 207.80 498.06 201.51 502.10 195.90 C 502.31 199.84 502.32 203.79 502.09 207.73 C 499.52 212.53 497.61 217.61 495.61 222.66 C 493.20 228.86 489.00 234.10 486.10 240.04 C 486.58 240.09 487.53 240.17 488.01 240.22 C 483.59 241.14 479.23 242.69 475.81 245.73 C 477.23 245.51 478.66 245.28 480.08 245.00 C 477.69 247.20 475.26 249.41 472.35 250.90 C 465.20 253.98 457.27 252.85 449.77 252.23 C 454.30 252.58 458.87 252.45 463.35 251.66 C 462.13 250.81 460.95 249.79 459.45 249.51 C 453.36 248.15 447.05 247.84 441.08 245.95 C 438.05 244.96 435.09 243.41 432.99 240.96 C 431.65 239.50 432.04 237.40 432.10 235.60 C 432.15 234.87 432.22 234.15 432.29 233.43 C 431.38 232.57 430.47 231.73 429.57 230.88 C 431.14 227.65 432.15 224.17 432.28 220.57 C 430.06 221.52 427.90 222.59 425.82 223.81 C 423.95 218.38 421.02 213.39 419.03 208.00 C 415.61 198.89 412.51 189.60 411.11 179.94 C 418.83 190.47 424.37 202.37 429.87 214.16 C 433.27 221.25 435.24 229.76 442.18 234.39 C 444.25 228.01 440.99 221.66 437.55 216.44 C 433.63 210.62 431.46 203.88 428.21 197.70 C 424.70 190.99 421.01 184.38 417.03 177.95 C 414.48 173.80 411.53 169.84 409.79 165.25 C 408.57 162.06 407.69 158.76 406.81 155.47 C 419.94 152.23 431.03 143.85 440.22 134.22 Z" />
<path fill="#849cc4" opacity="1.00" d=" M 360.99 144.82 C 365.81 141.48 371.79 140.38 377.56 140.45 C 387.61 140.26 397.17 148.19 399.11 157.99 C 392.87 158.66 386.37 158.84 380.37 156.72 C 373.23 154.10 365.81 150.99 360.99 144.82 Z" />
<path fill="#849cc4" opacity="1.00" d=" M 343.34 159.31 C 348.10 153.80 353.62 148.80 360.21 145.57 C 362.81 152.42 362.24 159.85 362.26 167.03 C 362.17 177.79 359.65 188.48 355.20 198.26 C 352.52 203.82 348.62 209.17 342.99 212.01 C 338.17 214.41 332.67 213.09 327.53 212.95 C 327.13 207.84 325.62 202.81 322.88 198.46 C 323.22 197.42 323.56 196.39 323.90 195.36 C 325.92 196.07 327.94 196.79 329.98 197.49 C 330.64 195.50 331.84 193.39 331.01 191.25 C 330.45 188.43 327.45 187.61 325.19 186.58 C 328.06 184.44 329.71 181.21 331.11 178.00 C 334.12 171.14 338.48 164.98 343.34 159.31 Z" />
</g>
<g id="#89b5ddff">
<path fill="#89b5dd" opacity="1.00" d=" M 490.40 101.14 C 494.43 99.27 498.55 97.63 502.64 95.90 C 503.57 99.08 504.89 102.13 505.58 105.37 C 506.72 116.57 508.97 127.69 508.73 139.00 C 508.56 146.09 508.37 153.20 509.36 160.25 C 507.89 168.78 504.61 176.90 503.44 185.50 C 495.67 181.84 488.63 176.90 481.67 171.91 C 481.48 165.02 482.14 158.08 481.12 151.23 C 479.67 152.35 477.72 153.07 476.80 154.73 C 475.99 157.44 476.16 160.31 476.18 163.11 C 469.91 157.98 467.66 149.70 467.05 141.94 C 466.73 139.59 467.76 137.43 468.77 135.39 C 476.84 142.45 485.87 148.29 494.78 154.22 C 497.57 156.23 500.97 156.94 504.35 157.08 C 503.89 155.46 503.84 153.60 502.66 152.30 C 500.16 149.56 496.61 148.19 493.35 146.59 C 483.65 142.16 475.76 134.70 468.58 126.98 C 469.95 122.98 471.52 119.05 473.30 115.22 C 474.60 112.30 477.88 111.18 480.04 109.03 C 483.18 106.01 486.37 102.94 490.40 101.14 Z" />
</g>
<g id="#010101ff">
<path fill="#010101" opacity="1.00" d=" M 102.81 164.86 C 104.16 164.85 105.52 164.85 106.88 164.85 C 107.17 179.23 106.88 193.62 106.98 208.00 C 107.10 216.99 106.68 225.98 107.22 234.96 C 108.72 234.91 110.22 234.88 111.72 234.84 C 115.17 223.69 117.58 212.25 121.05 201.10 C 121.91 201.44 122.78 201.77 123.65 202.11 C 121.01 213.45 117.13 224.47 114.95 235.91 C 116.24 236.54 117.53 237.16 118.82 237.79 C 131.92 216.01 144.16 193.70 157.26 171.92 C 158.47 172.58 159.69 173.24 160.91 173.90 C 151.76 190.33 142.10 206.47 132.77 222.79 C 129.55 228.57 125.87 234.10 122.99 240.08 C 124.01 240.91 125.02 241.77 126.12 242.49 C 129.63 240.74 131.89 237.33 134.71 234.72 C 140.49 229.15 145.80 223.09 151.97 217.93 C 152.23 218.47 152.77 219.57 153.04 220.12 C 145.49 228.97 136.41 236.37 128.75 245.11 C 129.75 246.19 130.76 247.28 131.78 248.36 C 138.22 245.05 144.34 241.19 150.66 237.66 C 164.19 229.84 177.80 222.17 191.25 214.21 C 193.42 212.97 195.68 211.90 197.96 210.87 C 198.54 212.11 199.13 213.35 199.71 214.59 C 177.83 227.11 155.94 239.61 134.17 252.32 C 134.48 253.80 134.79 255.28 135.10 256.76 C 146.87 254.48 158.14 250.14 169.96 248.08 C 169.86 248.72 169.67 250.01 169.57 250.65 C 158.54 254.28 147.05 256.33 136.03 259.98 C 136.41 260.95 136.79 261.91 137.18 262.88 C 144.45 263.33 151.73 263.02 159.00 263.08 C 256.67 263.09 354.33 263.08 452.00 263.09 C 460.91 263.09 469.82 263.05 478.73 263.17 C 478.17 262.28 477.62 261.37 477.08 260.47 C 477.30 258.92 477.54 257.39 477.80 255.85 C 483.97 258.76 489.97 262.55 496.92 263.21 C 505.32 264.06 513.78 263.90 522.19 264.70 C 526.53 265.08 530.93 265.93 535.28 265.12 C 538.76 264.49 542.17 263.54 545.64 262.82 C 551.42 262.99 557.21 263.20 563.00 263.10 C 642.00 263.07 721.00 263.10 800.00 263.08 L 800.00 270.25 C 791.67 270.34 783.33 270.30 775.00 270.31 C 570.33 270.31 365.67 270.30 161.00 270.31 C 153.10 270.38 145.20 270.15 137.30 270.36 C 136.84 271.27 136.39 272.18 135.93 273.10 C 146.96 276.85 158.42 279.15 169.58 282.44 C 169.66 283.10 169.82 284.42 169.90 285.08 C 158.06 283.07 146.78 278.72 135.01 276.38 C 134.73 277.84 134.44 279.29 134.15 280.75 C 137.83 283.19 141.68 285.36 145.53 287.51 C 158.02 294.69 170.47 301.92 182.98 309.06 C 188.65 312.37 194.49 315.42 199.97 319.05 C 199.26 320.11 198.55 321.17 197.84 322.24 C 191.92 319.75 186.59 316.13 181.00 313.01 C 168.34 305.65 155.57 298.49 142.93 291.09 C 139.08 288.73 135.16 286.47 130.99 284.74 C 130.39 285.82 129.77 286.90 129.28 288.04 C 130.21 290.18 132.02 291.75 133.62 293.38 C 138.59 298.07 143.31 303.02 148.27 307.72 C 150.30 309.79 153.18 311.92 152.38 315.22 C 147.72 312.10 144.09 307.77 140.12 303.88 C 135.67 299.51 131.42 294.92 126.79 290.74 C 125.50 291.51 124.22 292.28 122.94 293.07 C 125.57 298.59 128.94 303.71 131.96 309.02 C 138.64 320.67 145.38 332.28 152.10 343.91 C 155.09 349.17 158.43 354.24 160.89 359.78 C 159.64 360.21 158.39 360.65 157.14 361.10 C 147.71 345.66 139.01 329.78 129.84 314.19 C 126.15 308.06 122.94 301.64 118.91 295.72 C 117.56 296.15 116.21 296.59 114.87 297.03 C 116.85 308.85 121.69 320.01 123.30 331.91 C 122.64 331.73 121.32 331.38 120.66 331.20 C 117.53 320.22 114.98 309.08 111.68 298.15 C 110.15 298.39 108.61 298.64 107.09 298.89 C 106.78 326.35 107.15 353.82 106.94 381.28 C 105.55 381.28 104.16 381.27 102.77 381.27 C 102.40 374.18 102.63 367.09 102.60 360.00 C 102.58 339.70 102.60 319.41 102.62 299.12 C 101.17 298.73 99.71 298.36 98.26 297.99 C 94.37 308.98 92.37 320.54 88.74 331.62 C 88.12 331.61 86.87 331.59 86.25 331.57 C 88.34 319.89 92.61 308.73 94.89 297.09 C 93.58 296.62 92.28 296.15 90.97 295.68 C 89.82 297.32 88.68 298.96 87.63 300.66 C 76.03 320.78 64.49 340.94 52.70 360.94 C 51.45 360.58 50.19 360.22 48.94 359.86 C 51.09 354.07 54.72 349.04 57.69 343.68 C 67.35 326.77 77.33 310.05 86.85 293.06 C 85.61 292.26 84.36 291.45 83.12 290.65 C 78.00 295.00 73.52 300.03 68.70 304.70 C 64.89 308.35 61.67 312.86 56.70 315.04 C 57.30 313.05 58.04 311.04 59.59 309.58 C 66.64 302.39 74.14 295.63 80.88 288.15 C 80.16 287.08 79.43 286.02 78.70 284.96 C 73.33 286.74 68.70 290.05 63.81 292.80 C 52.38 299.37 40.96 305.94 29.54 312.53 C 23.69 315.81 18.07 319.51 11.99 322.35 C 11.26 321.23 10.52 320.12 9.80 319.00 C 15.54 315.22 21.65 312.06 27.56 308.57 C 43.61 299.24 59.78 290.13 75.79 280.74 C 75.24 279.36 74.68 277.98 74.13 276.60 C 64.05 278.57 54.30 281.91 44.33 284.32 C 42.51 284.72 40.15 285.25 39.12 283.19 C 50.25 278.82 62.24 277.25 73.48 273.19 C 73.32 272.48 73.01 271.07 72.85 270.37 C 48.57 270.17 24.28 270.43 0.00 270.25 L 0.00 263.07 C 17.00 263.10 34.00 263.08 51.00 263.08 C 58.32 263.04 65.66 263.34 72.97 262.81 C 73.05 262.10 73.21 260.67 73.30 259.96 C 63.74 256.70 53.81 254.73 44.11 251.94 C 42.22 251.28 39.49 250.71 39.58 248.16 C 51.28 250.05 62.48 254.16 74.03 256.79 C 74.68 255.50 75.33 254.21 75.98 252.92 C 71.35 249.36 66.04 246.88 61.03 243.94 C 49.40 237.25 37.79 230.55 26.18 223.84 C 20.76 220.60 15.04 217.87 9.93 214.14 C 10.43 213.07 10.93 212.01 11.43 210.95 C 16.99 212.81 21.75 216.32 26.83 219.15 C 39.75 226.56 52.65 234.02 65.56 241.46 C 69.66 243.91 73.78 246.36 78.09 248.44 C 79.06 247.30 80.04 246.17 81.01 245.04 C 72.98 236.47 64.27 228.57 56.16 220.07 C 56.81 219.42 57.46 218.78 58.11 218.14 C 66.83 226.02 74.61 234.86 83.25 242.82 C 84.42 241.89 85.59 240.96 86.77 240.03 C 83.56 233.76 79.73 227.85 76.29 221.71 C 68.34 207.99 60.46 194.24 52.43 180.56 C 51.17 178.37 50.02 176.12 48.87 173.88 C 49.94 173.19 51.02 172.50 52.09 171.82 C 55.26 175.87 57.56 180.48 60.10 184.91 C 67.22 197.14 74.29 209.39 81.37 221.64 C 84.54 226.97 87.29 232.57 91.00 237.56 C 92.30 237.01 93.61 236.46 94.92 235.91 C 92.48 224.54 88.58 213.53 86.20 202.14 C 87.06 201.85 87.91 201.55 88.77 201.27 C 92.24 212.40 94.30 223.95 98.19 234.96 C 99.65 234.91 101.11 234.86 102.57 234.82 C 102.68 219.54 102.54 204.27 102.60 189.00 C 102.68 180.95 102.33 172.90 102.81 164.86 M 99.38 243.44 C 91.46 245.35 84.63 251.47 82.22 259.29 C 79.35 267.71 81.86 277.57 88.29 283.70 C 94.82 290.11 105.17 291.95 113.65 288.69 C 120.78 285.90 126.33 279.43 127.99 271.95 C 129.78 264.72 127.76 256.72 122.89 251.11 C 117.24 244.53 107.83 241.37 99.38 243.44 Z" />
<path fill="#010101" opacity="1.00" d=" M 100.39 246.51 C 105.62 245.60 111.34 246.18 115.82 249.22 C 121.55 252.80 125.28 259.27 125.61 266.00 C 125.64 272.36 122.64 278.67 117.69 282.67 C 111.14 288.03 101.11 288.70 94.00 284.05 C 87.87 280.33 83.90 273.24 84.25 266.04 C 84.22 256.83 91.44 248.34 100.39 246.51 M 101.36 251.42 C 93.42 252.97 87.96 261.58 89.56 269.44 C 90.60 276.74 97.69 282.39 104.99 282.19 C 111.42 282.16 117.63 277.78 119.61 271.63 C 120.98 267.17 120.60 262.00 117.92 258.09 C 114.46 252.78 107.54 249.95 101.36 251.42 Z" />
<path fill="#010101" opacity="1.00" d=" M 102.38 254.44 C 109.06 252.96 116.56 258.05 117.07 265.01 C 117.81 270.03 115.17 275.34 110.59 277.60 C 106.46 279.57 101.13 279.41 97.43 276.56 C 94.15 274.17 92.19 270.12 92.29 266.07 C 92.58 260.54 96.94 255.51 102.38 254.44 M 105.16 258.47 C 102.68 258.53 100.04 259.43 98.41 261.38 C 96.31 264.35 96.18 268.70 98.37 271.66 C 101.08 275.42 107.29 275.83 110.49 272.49 C 112.88 270.27 113.40 266.62 112.44 263.61 C 111.43 260.59 108.29 258.54 105.16 258.47 Z" />
<path fill="#010101" opacity="1.00" d=" M 102.45 262.22 C 104.68 261.00 107.88 261.68 109.08 264.03 C 110.52 266.42 109.53 269.84 107.02 271.08 C 104.10 272.80 99.94 270.26 99.85 266.94 C 99.69 265.03 100.76 263.11 102.45 262.22 Z" />
<path fill="#010101" opacity="1.00" d=" M 591.76 288.76 C 597.16 283.75 604.81 281.96 612.01 282.22 C 619.21 282.20 626.99 284.58 631.49 290.52 C 634.49 294.23 635.51 299.02 635.90 303.67 C 633.10 303.74 630.29 303.72 627.50 303.59 C 626.40 300.02 625.56 295.96 622.40 293.59 C 616.55 289.18 608.24 288.76 601.63 291.63 C 597.38 293.34 594.62 298.06 595.41 302.61 C 595.93 306.17 599.26 308.42 602.39 309.61 C 611.26 312.83 621.07 313.05 629.53 317.49 C 633.66 319.60 637.14 323.33 638.14 327.95 C 639.04 332.25 638.85 336.95 636.88 340.94 C 634.55 345.15 630.64 348.39 626.21 350.20 C 619.77 352.93 612.57 353.10 605.72 352.32 C 599.08 351.25 592.28 348.35 588.23 342.76 C 585.25 338.88 584.22 333.96 584.11 329.16 C 586.91 328.89 589.74 328.88 592.56 329.14 C 593.33 332.72 593.93 336.65 596.60 339.39 C 600.52 343.55 606.39 345.34 611.99 345.40 C 616.74 345.46 621.81 344.68 625.67 341.71 C 629.87 338.47 631.18 331.58 627.64 327.40 C 624.99 324.23 620.85 323.01 617.02 321.96 C 609.88 320.25 602.50 319.22 595.75 316.22 C 591.82 314.43 588.20 311.30 586.98 307.03 C 585.24 300.69 586.77 293.25 591.76 288.76 Z" />
<path fill="#010101" opacity="1.00" d=" M 728.38 282.52 C 736.05 281.64 744.50 282.29 750.83 287.16 C 755.94 290.95 758.45 297.33 758.70 303.55 C 755.92 303.69 753.14 303.72 750.36 303.66 C 749.00 299.98 748.21 295.59 744.74 293.25 C 738.50 288.99 729.89 288.76 723.25 292.21 C 718.89 294.31 717.29 299.94 718.68 304.33 C 719.83 307.11 722.68 308.64 725.35 309.68 C 733.98 312.76 743.48 313.05 751.74 317.24 C 755.61 319.13 759.05 322.26 760.49 326.42 C 762.46 332.38 761.53 339.50 757.30 344.29 C 753.26 348.92 747.23 351.36 741.28 352.31 C 734.18 353.14 726.70 352.92 720.10 349.92 C 714.95 347.79 710.58 343.66 708.57 338.42 C 707.32 335.43 707.11 332.17 706.91 328.99 C 709.75 328.84 712.59 328.90 715.42 329.21 C 716.02 332.39 716.35 335.88 718.55 338.45 C 721.72 342.59 726.89 344.68 731.97 345.21 C 737.43 345.77 743.36 345.22 748.00 342.01 C 753.21 338.68 754.00 329.87 748.96 326.04 C 745.00 322.93 739.90 321.93 735.09 320.90 C 729.28 319.71 723.41 318.46 718.00 315.98 C 713.81 314.05 710.13 310.34 709.38 305.65 C 708.75 301.19 708.94 296.30 711.48 292.42 C 715.05 286.57 721.79 283.45 728.38 282.52 Z" />
<path fill="#010101" opacity="1.00" d=" M 241.33 284.11 C 248.87 283.42 256.45 283.97 264.00 283.78 C 270.39 283.79 277.39 283.35 282.96 287.07 C 290.72 292.10 291.94 304.13 285.96 310.99 C 283.93 313.22 281.17 314.54 278.62 316.06 C 282.37 317.81 286.52 319.44 288.90 323.05 C 291.72 326.94 292.11 332.00 291.50 336.63 C 290.70 342.84 285.67 347.94 279.81 349.75 C 273.44 351.93 266.61 351.29 260.00 351.34 C 253.78 351.22 247.53 351.73 241.33 350.97 C 241.42 328.69 241.42 306.40 241.33 284.11 M 243.79 285.83 C 243.44 295.56 243.45 305.31 243.78 315.05 C 250.51 315.32 257.25 315.08 263.99 315.19 C 268.36 315.17 272.83 315.33 277.09 314.17 C 281.67 312.96 285.70 309.42 287.07 304.83 C 287.76 301.98 287.74 298.95 287.12 296.09 C 286.18 292.16 283.06 289.03 279.41 287.48 C 274.57 285.33 269.16 285.63 264.00 285.62 C 257.26 285.73 250.52 285.43 243.79 285.83 M 243.89 317.22 C 243.27 323.13 243.67 329.07 243.59 335.00 C 243.54 339.73 243.48 344.46 243.78 349.19 C 251.51 349.60 259.26 349.24 267.00 349.41 C 272.48 349.49 278.35 349.27 283.06 346.11 C 290.89 341.22 292.11 328.86 285.65 322.36 C 281.79 318.59 276.24 317.26 270.99 317.24 C 261.95 317.16 252.92 317.18 243.89 317.22 Z" />
<path fill="#010101" opacity="1.00" d=" M 461.80 283.85 L 463.16 283.85 C 463.66 297.22 463.22 310.62 463.37 324.00 C 463.24 333.05 463.65 342.11 463.16 351.15 L 461.80 351.14 C 461.29 337.77 461.73 324.38 461.59 311.00 C 461.71 301.95 461.30 292.89 461.80 283.85 Z" />
<path fill="#010101" opacity="1.00" d=" M 649.25 283.92 C 657.48 283.28 665.75 283.85 674.00 283.62 C 680.54 283.60 687.93 283.28 693.28 287.73 C 700.19 293.38 700.80 303.55 698.60 311.61 C 696.90 318.35 690.35 322.85 683.65 323.52 C 675.23 324.23 666.75 323.11 658.35 324.08 C 658.30 333.12 658.66 342.18 658.22 351.22 C 655.23 351.42 652.23 351.40 649.26 351.10 C 649.27 328.70 649.27 306.31 649.25 283.92 M 658.36 291.35 C 658.40 299.52 658.42 307.70 658.34 315.87 C 664.89 316.40 671.48 316.33 678.05 316.04 C 682.57 315.84 687.64 314.04 689.57 309.58 C 691.71 304.58 691.10 297.90 686.78 294.22 C 683.79 291.77 679.74 291.46 676.04 291.36 C 670.14 291.31 664.25 291.33 658.36 291.35 Z" />
<path fill="#010101" opacity="1.00" d=" M 357.09 304.16 C 360.42 302.26 364.29 301.84 368.02 301.32 C 368.31 302.00 368.60 302.67 368.90 303.35 C 366.43 303.60 363.92 303.74 361.53 304.45 C 357.09 305.86 353.39 309.32 351.57 313.61 C 349.81 317.48 349.45 321.80 349.49 326.00 C 349.54 332.35 349.51 338.70 349.60 345.05 C 349.56 347.51 349.96 350.28 348.14 352.26 C 346.99 347.93 347.47 343.42 347.44 339.00 C 347.46 331.00 347.45 323.00 347.44 315.00 C 347.46 310.57 347.04 306.08 348.13 301.74 C 350.40 304.70 349.34 308.65 349.75 312.09 C 351.90 309.22 353.89 305.99 357.09 304.16 Z" />
<path fill="#010101" opacity="1.00" d=" M 477.70 307.70 C 485.18 299.39 499.91 299.23 507.39 307.63 C 512.25 312.84 513.86 320.26 513.34 327.20 C 499.93 327.62 486.50 327.23 473.09 327.36 C 472.95 333.92 474.38 341.04 479.28 345.76 C 483.84 350.25 490.82 350.93 496.84 349.83 C 502.19 348.93 507.21 345.32 509.17 340.16 C 510.19 337.97 510.54 335.23 512.81 333.91 C 512.94 341.63 507.39 348.66 500.17 351.04 C 493.17 353.34 484.73 352.90 478.80 348.19 C 473.72 344.03 471.65 337.36 470.98 331.05 C 470.08 322.83 471.93 313.88 477.70 307.70 M 482.58 306.47 C 476.29 310.38 473.32 317.93 472.96 325.09 C 479.29 325.68 485.65 325.31 492.00 325.38 C 498.60 325.30 505.23 325.69 511.83 325.09 C 511.25 318.95 509.60 312.41 504.88 308.11 C 498.94 302.60 489.28 302.00 482.58 306.47 Z" />
</g>
<g id="#a7adceff">
<path fill="#a7adce" opacity="1.00" d=" M 392.61 197.70 C 395.64 190.34 397.38 182.37 401.99 175.74 C 401.92 180.98 401.77 186.26 400.43 191.35 C 396.61 206.54 389.22 221.00 378.35 232.35 C 370.52 240.39 360.43 247.26 348.93 248.00 C 344.35 248.43 340.02 246.75 335.76 245.36 C 341.06 245.14 346.39 244.68 351.58 243.52 C 361.21 241.39 369.69 235.48 376.00 228.03 C 383.52 219.16 388.40 208.44 392.61 197.70 Z" />
</g>
<g id="#34383cff">
<path fill="#34383c" opacity="1.00" d=" M 322.17 189.36 C 323.11 188.36 324.16 187.48 325.19 186.58 C 327.45 187.61 330.45 188.43 331.01 191.25 C 331.84 193.39 330.64 195.50 329.98 197.49 C 327.94 196.79 325.92 196.07 323.90 195.36 C 323.21 193.40 322.30 191.46 322.17 189.36 Z" />
</g>
<g id="#d0dae3ff">
<path fill="#d0dae3" opacity="1.00" d=" M 507.83 189.92 C 508.60 189.37 509.38 188.83 510.16 188.28 C 520.88 191.25 531.79 193.93 542.99 193.96 C 552.80 193.90 562.76 194.49 572.40 192.28 C 576.32 191.40 580.30 190.81 584.28 190.20 C 581.23 193.51 578.28 196.92 575.25 200.25 C 570.42 205.55 566.79 211.75 562.53 217.49 C 557.27 224.61 552.67 232.22 548.94 240.25 C 545.25 239.26 541.61 238.11 537.93 237.12 C 531.43 235.38 524.66 234.92 517.96 234.96 C 511.87 235.03 505.73 235.43 499.80 236.93 C 496.41 237.77 493.15 239.05 489.80 240.00 C 489.35 240.05 488.45 240.16 488.01 240.22 C 487.53 240.17 486.58 240.09 486.10 240.04 C 489.00 234.10 493.20 228.86 495.61 222.66 C 497.61 217.61 499.52 212.53 502.09 207.73 C 502.30 212.82 502.69 217.90 502.72 222.99 C 502.69 226.15 503.25 229.28 504.23 232.28 C 505.73 231.54 507.81 231.19 508.39 229.36 C 509.97 225.32 508.75 220.94 508.18 216.83 C 506.45 207.96 506.75 198.84 507.83 189.92 Z" />
</g>
<g id="#d6bd41ff">
<path fill="#d6bd41" opacity="1.00" d=" M 99.38 243.44 C 107.83 241.37 117.24 244.53 122.89 251.11 C 127.76 256.72 129.78 264.72 127.99 271.95 C 126.33 279.43 120.78 285.90 113.65 288.69 C 105.17 291.95 94.82 290.11 88.29 283.70 C 81.86 277.57 79.35 267.71 82.22 259.29 C 84.63 251.47 91.46 245.35 99.38 243.44 M 100.39 246.51 C 91.44 248.34 84.22 256.83 84.25 266.04 C 83.90 273.24 87.87 280.33 94.00 284.05 C 101.11 288.70 111.14 288.03 117.69 282.67 C 122.64 278.67 125.64 272.36 125.61 266.00 C 125.28 259.27 121.55 252.80 115.82 249.22 C 111.34 246.18 105.62 245.60 100.39 246.51 Z" />
<path fill="#d6bd41" opacity="1.00" d=" M 101.36 251.42 C 107.54 249.95 114.46 252.78 117.92 258.09 C 120.60 262.00 120.98 267.17 119.61 271.63 C 117.63 277.78 111.42 282.16 104.99 282.19 C 97.69 282.39 90.60 276.74 89.56 269.44 C 87.96 261.58 93.42 252.97 101.36 251.42 M 102.38 254.44 C 96.94 255.51 92.58 260.54 92.29 266.07 C 92.19 270.12 94.15 274.17 97.43 276.56 C 101.13 279.41 106.46 279.57 110.59 277.60 C 115.17 275.34 117.81 270.03 117.07 265.01 C 116.56 258.05 109.06 252.96 102.38 254.44 Z" />
<path fill="#d6bd41" opacity="1.00" d=" M 105.16 258.47 C 108.29 258.54 111.43 260.59 112.44 263.61 C 113.40 266.62 112.88 270.27 110.49 272.49 C 107.29 275.83 101.08 275.42 98.37 271.66 C 96.18 268.70 96.31 264.35 98.41 261.38 C 100.04 259.43 102.68 258.53 105.16 258.47 M 102.45 262.22 C 100.76 263.11 99.69 265.03 99.85 266.94 C 99.94 270.26 104.10 272.80 107.02 271.08 C 109.53 269.84 110.52 266.42 109.08 264.03 C 107.88 261.68 104.68 261.00 102.45 262.22 Z" />
</g>
</svg>
