<svg id="Layer_1" data-name="Layer 1" xmlns="http://www.w3.org/2000/svg" viewBox="0 0 484 484"><defs><style>.cls-1{fill:#003262;}.cls-2,.cls-4{fill:#fff;}.cls-3{fill:#fdb515;}.cls-3,.cls-4{stroke:#003262;stroke-miterlimit:10;stroke-width:0.5px;}</style></defs><g id="Refined"><circle id="Background" class="cls-1" cx="242" cy="242" r="242"/><g id="Circular_Arc"><path class="cls-2" d="M133.89,398.23c-57.1-94.55-30.58-215.18,59.24-269.43-94.55,57.11-124.9,180.05-67.8,274.6s180.05,124.9,274.6,67.8C310.11,525.45,191,492.78,133.89,398.23Z" transform="translate(-56.53 -58)"/><path class="cls-2" d="M193.13,128.8c89.82-54.25,208.93-21.58,266,73S489.75,417,399.93,471.2c94.55-57.11,124.9-180,67.8-274.6S287.68,71.7,193.13,128.8Z" transform="translate(-56.53 -58)"/></g><g id="Camponile_Atom"><polygon id="Roof" class="cls-2" points="130.97 120 109.47 166 152.47 166 130.97 120"/><path id="Refined_Body" class="cls-2" d="M166,224V425h43V224Zm14,9.63V259h-9V233.63a2.33,2.33,0,0,1,0-.46c.18-1.54,2.24-3.17,4.5-3.17s4.32,1.63,4.5,3.17A2.33,2.33,0,0,1,180,233.63Zm12,0V259h-9V233.63a2.33,2.33,0,0,1,0-.46c.18-1.54,2.24-3.17,4.5-3.17s4.32,1.63,4.5,3.17A2.33,2.33,0,0,1,192,233.63Zm12,0V259h-9V233.63a2.33,2.33,0,0,1,0-.46c.18-1.54,2.24-3.17,4.5-3.17s4.32,1.63,4.5,3.17A2.33,2.33,0,0,1,204,233.63Z" transform="translate(-56.53 -58)"/><ellipse class="cls-3" cx="128.87" cy="77.43" rx="7.23" ry="7.14"/><path class="cls-4" d="M185.4,94c-13.57,0-24.57,18.55-24.57,41.43s11,41.43,24.57,41.43S210,158.31,210,135.43,199,94,185.4,94Zm0,80c-10.38,0-18.79-17.27-18.79-38.57S175,96.86,185.4,96.86s18.79,17.27,18.79,38.57S195.78,174,185.4,174Z" transform="translate(-56.53 -58)"/><path class="cls-4" d="M212.35,103.69c-10.4-8.62-30.89-1.4-45.77,16.13s-18.52,38.72-8.12,47.34,30.88,1.41,45.77-16.12S222.74,112.31,212.35,103.69Zm-52,61.29c-7.95-6.6-3.17-25.17,10.69-41.49s31.53-24.2,39.48-17.61,3.16,25.17-10.69,41.49S168.27,171.57,160.32,165Z" transform="translate(-56.53 -58)"/><line class="cls-1" x1="109.47" y1="206" x2="152.47" y2="206"/></g><path class="cls-2" d="M236.17,246.78V172.26h5.76v73.08c0,32.75,15.12,42.47,31.68,42.47,16.92,0,32-9.72,32-42.47V172.26h5.4v74.52c0,36.71-18.72,46.43-37.44,46.43S236.17,283.49,236.17,246.78Z" transform="translate(-56.53 -58)"/><path class="cls-2" d="M342,275.21l4-4a49.93,49.93,0,0,0,37.44,16.56c20.16,0,33.12-10.43,33.12-25.55,0-15.84-11-20.88-23.76-26.28l-18.36-8.28c-10.8-4.5-25.92-11.52-25.92-29.16,0-16.92,15.12-28.44,35.28-28.44a47.81,47.81,0,0,1,34.2,14l-3.6,4c-7.2-7.56-17.64-12.6-30.6-12.6-17.64,0-29.52,9-29.52,22.68,0,14.76,13.5,20.34,22.68,24.12l18.36,8.28c14,5.94,27,13,27,31.32,0,18-15.48,31.31-38.88,31.31C365.05,293.21,351.37,285.65,342,275.21Z" transform="translate(-56.53 -58)"/><path class="cls-2" d="M241.93,306.26h31c26.64,0,41.76,8.64,41.76,32.4,0,22.68-15.12,33.84-41.76,33.84h-25.2v52.55h-5.76Zm28.8,61.2c25.56,0,37.8-8.28,37.8-28.8,0-20.88-12.24-27.36-37.8-27.36h-23v56.16Z" transform="translate(-56.53 -58)"/><path class="cls-2" d="M378.73,311.3H336.61v-5h90v5H384.49V425.05h-5.76Z" transform="translate(-56.53 -58)"/></g></svg>